<svg width="20" height="22" viewBox="0 0 20 22" fill="none" xmlns="http://www.w3.org/2000/svg">
<path fill-rule="evenodd" clip-rule="evenodd" d="M16.9272 3.12437C15.1152 1.29415 12.6495 0.259987 10.0741 0.25H10C4.61522 0.25 0.25 4.61522 0.25 10V15.25C0.25 16.4926 1.25736 17.5 2.5 17.5H4C5.24264 17.5 6.25 16.4926 6.25 15.25V11.5C6.25 10.2574 5.24264 9.25 4 9.25H1.78375C2.07903 6.05748 4.19481 3.32411 7.2114 2.23803C10.228 1.15195 13.6006 1.90933 15.8631 4.18094C17.2177 5.54247 18.0509 7.33662 18.2172 9.25H16C14.7574 9.25 13.75 10.2574 13.75 11.5V15.25C13.75 16.4926 14.7574 17.5 16 17.5H18.25C18.25 18.7426 17.2426 19.75 16 19.75H10.75C10.3358 19.75 10 20.0858 10 20.5C10 20.9142 10.3358 21.25 10.75 21.25H16C18.0711 21.25 19.75 19.5711 19.75 17.5V10C19.7599 7.42412 18.7442 4.95022 16.9272 3.12437V3.12437ZM4 10.75C4.41421 10.75 4.75 11.0858 4.75 11.5V15.25C4.75 15.6642 4.41421 16 4 16H2.5C2.08579 16 1.75 15.6642 1.75 15.25V10.75H4ZM16 16C15.5858 16 15.25 15.6642 15.25 15.25V11.5C15.25 11.0858 15.5858 10.75 16 10.75H18.25V16H16Z" fill="white"/>
</svg>
